<svg width="27" height="143" viewBox="0 0 27 143" fill="none" xmlns="http://www.w3.org/2000/svg">
<path fill-rule="evenodd" clip-rule="evenodd" d="M6.64966 119.965L-5.03448e-07 131.482L6.64966 143L19.949 143L26.5986 131.482L19.949 119.965L6.64966 119.965ZM8.61646 123.372L3.9336 131.482L8.61646 139.593L17.9822 139.593L22.665 131.482L17.9822 123.372L8.61646 123.372Z" fill="black"/>
<path fill-rule="evenodd" clip-rule="evenodd" d="M8.61645 123.332L3.93359 131.48L8.61645 139.628L17.9822 139.628L22.665 131.48L17.9822 123.332L8.61645 123.332ZM10.3491 126.603L7.49257 131.574L10.3491 136.544L16.0622 136.544L18.9187 131.574L16.0622 126.603L10.3491 126.603Z" fill="#5B5B5B"/>
<path d="M23.4938 107.144C23.4938 109.047 22.9695 110.563 21.9209 111.69C20.8538 112.799 19.4188 113.354 17.6159 113.354L8.67481 113.354C6.85347 113.354 5.41849 112.799 4.36984 111.69C3.3212 110.563 2.79687 109.047 2.79687 107.144C2.79687 105.258 3.3304 103.761 4.39744 102.652C5.44608 101.525 6.87187 100.961 8.67481 100.961L8.67481 103.955C7.62616 103.955 6.82588 104.242 6.27396 104.815C5.72204 105.369 5.44608 106.146 5.44608 107.144C5.44608 108.16 5.72204 108.955 6.27396 109.528C6.82588 110.082 7.62616 110.359 8.67481 110.359L17.6159 110.359C18.6645 110.359 19.4648 110.082 20.0167 109.528C20.5686 108.955 20.8446 108.16 20.8446 107.144C20.8446 106.146 20.5686 105.369 20.0167 104.815C19.4648 104.242 18.6645 103.955 17.6159 103.955L17.6159 100.961C19.4188 100.961 20.8538 101.525 21.9209 102.652C22.9695 103.761 23.4938 105.258 23.4938 107.144Z" fill="black"/>
<path d="M23.2179 97.8672L3.07283 92.7108L3.07283 88.7741L23.2179 83.5899L23.2179 86.6394L18.1126 87.8592L18.1126 93.5979L23.2179 94.8177L23.2179 97.8672ZM15.629 93.0434L15.629 88.4414L9.83383 89.8276C8.80359 90.0678 7.91132 90.2711 7.15703 90.4375C6.40274 90.5853 5.87842 90.687 5.58406 90.7424C5.87842 90.7979 6.40274 90.8995 7.15703 91.0474C7.91132 91.1952 8.79439 91.3985 9.80624 91.6573L15.629 93.0434Z" fill="black"/>
<path d="M23.2179 80.0799L3.07283 80.0799L3.07283 73.7591C3.07283 72.5023 3.3212 71.4026 3.81792 70.4601C4.29625 69.499 4.97695 68.7597 5.86002 68.2422C6.74309 67.7062 7.78254 67.4383 8.97836 67.4383C10.3214 67.4383 11.4896 67.7802 12.483 68.464C13.4765 69.1478 14.1756 70.0627 14.5803 71.2086L23.2179 67.161L23.2179 70.4323L14.9391 74.2027L14.9391 77.1136L23.2179 77.1136L23.2179 80.0799ZM12.2899 77.1136L12.2899 73.7591C12.2899 72.7611 11.9955 71.9663 11.4068 71.3749C10.8181 70.7835 10.027 70.4878 9.03355 70.4878C8.0217 70.4878 7.22142 70.7927 6.63271 71.4026C6.0256 71.9941 5.72204 72.7795 5.72204 73.7591L5.72204 77.1136L12.2899 77.1136Z" fill="black"/>
<path d="M23.2179 63.457L3.07283 63.457L3.07283 57.4965C3.07283 55.5929 3.54196 54.0959 4.48022 53.0054C5.40009 51.8965 6.6695 51.342 8.28846 51.342C9.3555 51.342 10.2938 51.6655 11.1032 52.3124C11.8943 52.9592 12.3819 53.8002 12.5658 54.8351L12.6486 54.8351C12.7406 54.0589 13.0166 53.3751 13.4765 52.7836C13.9364 52.1737 14.5159 51.7024 15.215 51.3698C15.9141 51.0371 16.696 50.8708 17.5607 50.8708C19.29 50.8708 20.6698 51.4345 21.7001 52.5619C22.7119 53.6893 23.2179 55.2048 23.2179 57.1084L23.2179 63.457ZM11.5172 60.5461L11.5172 57.5243C11.5172 56.5447 11.2596 55.7685 10.7445 55.1955C10.211 54.6041 9.48428 54.3084 8.56442 54.3084C7.66295 54.3084 6.95466 54.5949 6.43953 55.1678C5.90601 55.7408 5.63925 56.517 5.63925 57.4965L5.63925 60.5461L11.5172 60.5461ZM20.6514 60.5461L20.6514 57.3579C20.6514 56.2675 20.3663 55.4081 19.796 54.7797C19.2072 54.1513 18.4162 53.8371 17.4227 53.8371C16.3925 53.8371 15.5646 54.1513 14.9391 54.7797C14.3136 55.4081 14.0008 56.2675 14.0008 57.3579L14.0008 60.5461L20.6514 60.5461Z" fill="black"/>
<path d="M23.4938 40.8736C23.4938 42.7588 22.9603 44.2466 21.8933 45.337C20.8078 46.4274 19.29 46.9727 17.3399 46.9727L8.95076 46.9727C7.00065 46.9727 5.49207 46.4274 4.42503 45.337C3.33959 44.2466 2.79687 42.7588 2.79687 40.8736C2.79687 38.9884 3.33959 37.5006 4.42503 36.4102C5.49207 35.3198 6.99145 34.7746 8.92317 34.7746L17.3399 34.7746C19.29 34.7746 20.8078 35.3198 21.8933 36.4102C22.9603 37.5006 23.4938 38.9884 23.4938 40.8736ZM20.8446 40.8736C20.8446 39.8756 20.5686 39.1086 20.0167 38.5726C19.4648 38.0366 18.6645 37.7686 17.6159 37.7686L8.6748 37.7686C7.62616 37.7686 6.82588 38.0366 6.27396 38.5726C5.72204 39.0901 5.44608 39.8571 5.44608 40.8736C5.44608 41.8901 5.72204 42.6664 6.27396 43.2023C6.82588 43.7198 7.62616 43.9786 8.6748 43.9786L17.6159 43.9786C18.6645 43.9786 19.4648 43.7106 20.0167 43.1746C20.5686 42.6386 20.8446 41.8716 20.8446 40.8736Z" fill="black"/>
<path d="M23.2179 30.322L3.07283 30.322L3.07283 26.5239L19.8236 20.6467C19.3084 20.6836 18.6829 20.7299 17.947 20.7853C17.2111 20.8407 16.4477 20.8869 15.6566 20.9239C14.8655 20.9424 14.1388 20.9516 13.4765 20.9516L3.07283 20.9516L3.07283 18.1793L23.2179 18.1793L23.2179 21.9497L6.46713 27.8269C6.96385 27.79 7.57096 27.753 8.28846 27.716C8.98756 27.6606 9.72345 27.6144 10.4961 27.5774C11.2688 27.5405 11.9863 27.522 12.6486 27.522L23.2179 27.522L23.2179 30.322Z" fill="black"/>
<path d="M23.4938 7.60001C23.4938 8.94919 23.2179 10.132 22.6659 11.1485C22.114 12.1466 21.3505 12.9321 20.3755 13.505C19.4004 14.0595 18.2506 14.3367 16.926 14.3367C16.0981 14.3367 15.1966 14.1703 14.2216 13.8377C13.2465 13.4865 12.2439 13.0152 11.2136 12.4238L3.07283 7.90496L3.07283 4.55048L11.8207 9.65151L11.9035 9.54061C11.554 9.28186 11.278 8.90299 11.0756 8.40398C10.8733 7.90496 10.7721 7.34126 10.7721 6.71288C10.7721 5.56699 11.0297 4.55973 11.5448 3.69108C12.0599 2.82243 12.7866 2.14783 13.7249 1.6673C14.6447 1.16828 15.7118 0.918769 16.926 0.918769C18.2506 0.918769 19.4096 1.20525 20.4031 1.77818C21.3781 2.33264 22.1416 3.10889 22.6935 4.10692C23.2271 5.10494 23.4938 6.2693 23.4938 7.60001ZM20.8998 7.62773C20.8998 6.50033 20.541 5.59472 19.8236 4.91088C19.1061 4.22705 18.1586 3.88513 16.9812 3.88513C15.8037 3.88513 14.8563 4.22705 14.1388 4.91088C13.4213 5.59472 13.0626 6.50033 13.0626 7.62773C13.0626 8.75513 13.4213 9.66075 14.1388 10.3446C14.8563 11.0284 15.8037 11.3703 16.9812 11.3703C18.1586 11.3703 19.1061 11.0284 19.8236 10.3446C20.541 9.66075 20.8998 8.75513 20.8998 7.62773Z" fill="black"/>
</svg>
