<svg width="30" height="30" viewBox="0 0 44 44" fill="none" xmlns="http://www.w3.org/2000/svg">
<path d="M41.4569 8.18662L41.4622 8.192L41.4678 8.19713C41.8122 8.51282 42.059 8.87415 42.2141 9.28282C42.3739 9.70423 42.4543 10.1483 42.4543 10.6174C42.4543 11.0519 42.3748 11.4895 42.2127 11.9317C42.0559 12.3593 41.8058 12.747 41.4569 13.096L35.3829 19.1699C34.7174 19.8354 33.9067 20.1674 32.9283 20.1674C31.9499 20.1674 31.1391 19.8354 30.4736 19.1699L28.7518 17.4482C28.2454 16.9417 27.4242 16.9417 26.9177 17.4482C26.4113 17.9546 26.4113 18.7758 26.9177 19.2823L28.6395 21.004C29.3037 21.6682 29.6277 22.4768 29.6131 23.4535C29.5985 24.4336 29.2585 25.2465 28.5916 25.9134L25.9134 28.5916C25.2479 29.2572 24.4371 29.5891 23.4587 29.5891C22.4803 29.5891 21.6695 29.2572 21.004 28.5916L19.2823 26.8699C18.7758 26.3634 17.9546 26.3634 17.4482 26.8699C16.9417 27.3764 16.9417 28.1975 17.4482 28.704L19.1699 30.4257C19.833 31.0889 20.1581 31.9049 20.1435 32.8992C20.1288 33.8968 19.7879 34.7172 19.1221 35.3829L13.0482 41.4569C12.7303 41.7748 12.3625 42.0201 11.9423 42.194C11.5232 42.3674 11.0825 42.4543 10.6174 42.4543C10.187 42.4543 9.75272 42.3685 9.31259 42.1924C8.87617 42.0179 8.48358 41.7713 8.13328 41.4514L1.35299 34.6711C1.03306 34.3208 0.786492 33.9282 0.611923 33.4918C0.435872 33.0516 0.35 32.6174 0.35 32.187C0.35 31.7218 0.436965 31.2811 0.610362 30.8621C0.784235 30.4419 1.02958 30.0741 1.34749 29.7562L7.4214 23.6823C8.08719 23.0165 8.90754 22.6755 9.90515 22.6608C10.8994 22.6462 11.7155 22.9713 12.3786 23.6344L14.1003 25.3562C14.6068 25.8627 15.428 25.8627 15.9344 25.3562C16.4409 24.8497 16.4409 24.0286 15.9344 23.5221L14.2127 21.8003C13.5461 21.1337 13.2152 20.3304 13.2152 19.3696C13.2152 18.4087 13.5461 17.6054 14.2127 16.9388L16.9388 14.2127C17.6043 13.5472 18.4151 13.2152 19.3935 13.2152C20.3719 13.2152 21.1826 13.5472 21.8482 14.2127L23.5699 15.9344C24.0764 16.4409 24.8975 16.4409 25.404 15.9344C25.9105 15.428 25.9105 14.6068 25.404 14.1003L23.6823 12.3786C23.0167 11.7131 22.6848 10.9023 22.6848 9.92391C22.6848 8.94552 23.0167 8.13476 23.6823 7.46923L29.7562 1.39531C30.107 1.0445 30.4979 0.784741 30.93 0.611923L30.8 0.287079L30.93 0.611923C31.3701 0.435872 31.8044 0.35 32.2348 0.35C32.665 0.35 33.0899 0.435791 33.5118 0.610363C33.9283 0.782687 34.3128 1.04256 34.6656 1.39531L41.4569 8.18662ZM27.7632 43.6236C27.4249 43.642 27.1326 43.3644 27.1326 43V41.1739C27.1326 40.8205 27.423 40.516 27.8047 40.4912C31.19 40.2717 34.1009 38.9462 36.5236 36.5236C38.9462 34.1009 40.2717 31.19 40.4912 27.8047C40.516 27.423 40.8205 27.1326 41.1739 27.1326H43C43.3644 27.1326 43.642 27.4249 43.6236 27.7632C43.516 29.7415 43.0798 31.6072 42.316 33.3625C41.4241 35.4124 40.2209 37.1928 38.7069 38.7069C37.1928 40.2209 35.4124 41.4241 33.3625 42.316C31.6072 43.0798 29.7415 43.516 27.7632 43.6236ZM27.7486 35.9534C27.4263 35.9836 27.1326 35.7169 27.1326 35.3478V33.5217C27.1326 33.1749 27.4231 32.856 27.8342 32.7898C29.0807 32.589 30.17 32.0207 31.0953 31.0953C32.0207 30.17 32.589 29.0807 32.7898 27.8342C32.856 27.4231 33.1749 27.1326 33.5217 27.1326H35.3478C35.7169 27.1326 35.9836 27.4263 35.9534 27.7486C35.7528 29.8844 34.8729 31.7321 33.3025 33.3025C31.7321 34.8729 29.8844 35.7528 27.7486 35.9534ZM9.6628 38.5665C10.19 39.0937 11.0448 39.0937 11.572 38.5665L12.1665 37.972C12.6937 37.4448 12.6937 36.59 12.1665 36.0628L6.78938 30.6857C6.26217 30.1585 5.4074 30.1585 4.88019 30.6857L4.28571 31.2802C3.7585 31.8074 3.7585 32.6622 4.28571 33.1894L9.6628 38.5665ZM13.728 34.5012C14.2552 35.0285 15.11 35.0285 15.6372 34.5012L16.2317 33.9068C16.7589 33.3796 16.7589 32.5248 16.2317 31.9976L10.8546 26.6205C10.3274 26.0933 9.47261 26.0933 8.94541 26.6205L8.35092 27.215C7.82372 27.7422 7.82372 28.597 8.35092 29.1242L13.728 34.5012ZM22.528 25.7012C23.0552 26.2285 23.91 26.2285 24.4372 25.7013L25.7013 24.4372C26.2285 23.91 26.2285 23.0552 25.7013 22.528L20.3242 17.1509C19.797 16.6237 18.9422 16.6237 18.415 17.1509L17.1509 18.415C16.6237 18.9422 16.6237 19.797 17.1509 20.3242L22.528 25.7012ZM31.9976 16.2317C32.5248 16.7589 33.3796 16.7589 33.9068 16.2317L34.5012 15.6372C35.0285 15.11 35.0285 14.2552 34.5012 13.728L29.1242 8.35092C28.597 7.82372 27.7422 7.82372 27.215 8.35092L26.6205 8.9454C26.0933 9.47261 26.0933 10.3274 26.6205 10.8546L31.9976 16.2317ZM36.0628 12.1665C36.59 12.6937 37.4448 12.6937 37.972 12.1665L38.5665 11.572C39.0937 11.0448 39.0937 10.19 38.5665 9.6628L33.1894 4.28571C32.6622 3.7585 31.8074 3.7585 31.2802 4.28571L30.6857 4.88019C30.1585 5.4074 30.1585 6.26217 30.6857 6.78938L36.0628 12.1665Z" fill="#4F4F4F" stroke="#E7E7E7" stroke-width="0.7"/>
</svg>
